<svg width="171" height="71" viewBox="0 0 171 71" fill="none" xmlns="http://www.w3.org/2000/svg">
<path d="M109.356 69C145.143 69 169 49.8581 169 35.5C169 21.1419 145.143 2 109.356 2C77.5625 2 51.0649 13.687 36.9214 23.6097C36.176 21.9266 35.1095 20.2935 33.7404 18.7388C29.4103 13.7362 19.4816 10.2812 12.3483 8.34267C8.13346 7.19473 3.47331 8.68437 2.88483 11.2929C1.73172 16.376 0.964309 24.3557 5.51312 29.6129C7.78753 32.2416 10.3204 34.1779 12.9686 35.5C10.3204 36.8221 7.78753 38.7584 5.51312 41.3871C0.964309 46.6443 1.73172 54.624 2.88085 59.7071C3.47331 62.3156 8.13744 63.8053 12.3483 62.6596C19.4816 60.7188 29.4103 57.2661 33.7404 52.2634C35.2196 50.5504 36.2653 48.9223 36.9214 47.3903C51.0649 57.313 77.5625 69 109.356 69Z" fill="white" stroke="#0463EE" stroke-width="3" stroke-linecap="round" stroke-linejoin="round"/>
</svg>
