<svg width="442" height="195" viewBox="0 0 442 195" fill="none" xmlns="http://www.w3.org/2000/svg">
<path d="M1 5.50001V167.927C1 172.688 7.58695 175.193 11.4322 172.386C33.0977 156.571 64.711 158.782 79.9322 177.177C80.9596 178.418 82.4558 179.211 84.0675 179.211H142.667C145.428 179.211 147.667 181.449 147.667 184.211V188.725C147.667 192.232 151.184 194.65 154.459 193.392L190.532 179.543C191.104 179.323 191.712 179.211 192.324 179.211H436C438.761 179.211 441 176.972 441 174.211V5.5C441 2.73858 438.761 0.5 436 0.5H6C3.23858 0.5 1 2.73858 1 5.50001Z" fill="#DBECF9" stroke="#57B6FF"/>
</svg>
